<svg width="24" height="22" viewBox="0 0 24 22" fill="none" xmlns="http://www.w3.org/2000/svg">
<g clip-path="url(#clip0_269_2)">
<path d="M19 0H5C3.67392 0 2.40215 0.526784 1.46447 1.46447C0.526784 2.40215 0 3.67392 0 5L0 17C0 17.6566 0.129329 18.3068 0.380602 18.9134C0.631876 19.52 1.00017 20.0712 1.46447 20.5355C2.40215 21.4732 3.67392 22 5 22H19C19.6566 22 20.3068 21.8707 20.9134 21.6194C21.52 21.3681 22.0712 20.9998 22.5355 20.5355C22.9998 20.0712 23.3681 19.52 23.6194 18.9134C23.8707 18.3068 24 17.6566 24 17V5C24 4.34339 23.8707 3.69321 23.6194 3.08658C23.3681 2.47995 22.9998 1.92876 22.5355 1.46447C22.0712 1.00017 21.52 0.631876 20.9134 0.380602C20.3068 0.129329 19.6566 0 19 0ZM22 17C22 17.7956 21.6839 18.5587 21.1213 19.1213C20.5587 19.6839 19.7956 20 19 20H5C4.20435 20 3.44129 19.6839 2.87868 19.1213C2.31607 18.5587 2 17.7956 2 17V5C2 4.20435 2.31607 3.44129 2.87868 2.87868C3.44129 2.31607 4.20435 2 5 2H19C19.7956 2 20.5587 2.31607 21.1213 2.87868C21.6839 3.44129 22 4.20435 22 5V17ZM19 6C19 6.26522 18.8946 6.51957 18.7071 6.70711C18.5196 6.89464 18.2652 7 18 7H11C10.7348 7 10.4804 6.89464 10.2929 6.70711C10.1054 6.51957 10 6.26522 10 6C10 5.73478 10.1054 5.48043 10.2929 5.29289C10.4804 5.10536 10.7348 5 11 5H18C18.2652 5 18.5196 5.10536 18.7071 5.29289C18.8946 5.48043 19 5.73478 19 6ZM8 6C8 6.29667 7.91203 6.58668 7.7472 6.83336C7.58238 7.08003 7.34811 7.27229 7.07403 7.38582C6.79994 7.49935 6.49834 7.52906 6.20736 7.47118C5.91639 7.4133 5.64912 7.27044 5.43934 7.06066C5.22956 6.85088 5.0867 6.58361 5.02882 6.29264C4.97094 6.00166 5.00065 5.70006 5.11418 5.42597C5.22771 5.15189 5.41997 4.91762 5.66664 4.7528C5.91332 4.58797 6.20333 4.5 6.5 4.5C6.89782 4.5 7.27936 4.65804 7.56066 4.93934C7.84196 5.22064 8 5.60218 8 6ZM19 11C19 11.2652 18.8946 11.5196 18.7071 11.7071C18.5196 11.8946 18.2652 12 18 12H11C10.7348 12 10.4804 11.8946 10.2929 11.7071C10.1054 11.5196 10 11.2652 10 11C10 10.7348 10.1054 10.4804 10.2929 10.2929C10.4804 10.1054 10.7348 10 11 10H18C18.2652 10 18.5196 10.1054 18.7071 10.2929C18.8946 10.4804 19 10.7348 19 11ZM8 11C8 11.2967 7.91203 11.5867 7.7472 11.8334C7.58238 12.08 7.34811 12.2723 7.07403 12.3858C6.79994 12.4994 6.49834 12.5291 6.20736 12.4712C5.91639 12.4133 5.64912 12.2704 5.43934 12.0607C5.22956 11.8509 5.0867 11.5836 5.02882 11.2926C4.97094 11.0017 5.00065 10.7001 5.11418 10.426C5.22771 10.1519 5.41997 9.91762 5.66664 9.7528C5.91332 9.58797 6.20333 9.5 6.5 9.5C6.89782 9.5 7.27936 9.65804 7.56066 9.93934C7.84196 10.2206 8 10.6022 8 11ZM19 16C19 16.2652 18.8946 16.5196 18.7071 16.7071C18.5196 16.8946 18.2652 17 18 17H11C10.7348 17 10.4804 16.8946 10.2929 16.7071C10.1054 16.5196 10 16.2652 10 16C10 15.7348 10.1054 15.4804 10.2929 15.2929C10.4804 15.1054 10.7348 15 11 15H18C18.2652 15 18.5196 15.1054 18.7071 15.2929C18.8946 15.4804 19 15.7348 19 16ZM8 16C8 16.2967 7.91203 16.5867 7.7472 16.8334C7.58238 17.08 7.34811 17.2723 7.07403 17.3858C6.79994 17.4993 6.49834 17.5291 6.20736 17.4712C5.91639 17.4133 5.64912 17.2704 5.43934 17.0607C5.22956 16.8509 5.0867 16.5836 5.02882 16.2926C4.97094 16.0017 5.00065 15.7001 5.11418 15.426C5.22771 15.1519 5.41997 14.9176 5.66664 14.7528C5.91332 14.588 6.20333 14.5 6.5 14.5C6.89782 14.5 7.27936 14.658 7.56066 14.9393C7.84196 15.2206 8 15.6022 8 16Z" fill="white"/>
</g>
<defs>
<clipPath id="clip0_269_2">
<rect width="24" height="22" fill="white"/>
</clipPath>
</defs>
</svg>
